<?xml version="1.0" standalone="no"?>
<!DOCTYPE svg PUBLIC "-//W3C//DTD SVG 20010904//EN"
 "http://www.w3.org/TR/2001/REC-SVG-20010904/DTD/svg10.dtd">
<svg version="1.0" xmlns="http://www.w3.org/2000/svg"
 width="192.000000pt" height="192.000000pt" viewBox="0 0 192.000000 192.000000"
 preserveAspectRatio="xMidYMid meet">

<g transform="translate(0.000000,192.000000) scale(0.100000,-0.100000)"
fill="#000000" stroke="none">
<path d="M618 1614 c-15 -8 -32 -23 -38 -34 -5 -10 -10 -82 -10 -159 l0 -140
-52 -10 c-165 -35 -272 -144 -285 -290 -5 -63 4 -97 105 -370 35 -95 73 -179
90 -200 15 -19 55 -50 88 -67 104 -58 148 -64 444 -64 296 0 340 6 444 64 33
17 73 48 88 67 27 33 111 245 175 439 68 207 -49 383 -283 423 l-64 11 0 139
c0 80 -5 147 -11 159 -23 43 -60 48 -371 48 -239 -1 -298 -4 -320 -16z m552
-229 l0 -105 -225 0 -225 0 0 105 0 105 225 0 225 0 0 -105z m-58 -363 c36
-23 69 -66 82 -109 8 -24 0 -28 -76 -39 -44 -6 -48 -4 -59 20 -22 47 -136 61
-169 21 -21 -26 5 -42 103 -65 110 -26 164 -49 195 -83 58 -62 29 -174 -56
-225 -43 -25 -56 -27 -147 -27 -84 0 -107 3 -142 22 -44 24 -85 70 -102 115
-12 31 -8 33 80 43 55 7 57 6 63 -20 16 -63 172 -74 192 -13 9 28 -4 37 -77
54 -120 27 -187 54 -213 84 -49 59 -46 140 8 193 45 45 85 56 191 54 74 -2 98
-7 127 -25z"/>
</g>
</svg>
